<svg width="38" height="38" viewBox="0 0 38 38" fill="none" xmlns="http://www.w3.org/2000/svg">
<path d="M17.8525 19.1061C17.3437 19.3614 17.1641 19.9997 17.4036 20.5423L17.7328 21.2764C18.0621 21.9785 18.0321 22.9041 17.643 23.5424C16.9845 24.6275 16.8049 26.1276 17.224 27.4042L17.4934 28.2659C17.643 28.7128 18.0321 29 18.4512 29C18.5709 29 18.6607 28.9681 18.7804 28.9362C19.2893 28.7447 19.5886 28.1383 19.409 27.5638L19.1396 26.7021C18.9301 26.0318 18.99 25.2339 19.3492 24.6914C20.1274 23.4147 20.2172 21.6913 19.5587 20.3189L19.2294 19.5848C18.96 19.0742 18.3614 18.8508 17.8525 19.1061Z" fill="white"/>
<path d="M12.854 19.1061C12.3452 19.3614 12.1656 19.9997 12.405 20.5423L12.7343 21.2764C13.0635 21.9785 13.0336 22.9041 12.6445 23.5424C11.986 24.6275 11.8064 26.1276 12.2254 27.4042L12.4948 28.2659C12.6445 28.7128 13.0336 29 13.4527 29C13.5724 29 13.6622 28.9681 13.7819 28.9362C14.2908 28.7447 14.5901 28.1383 14.4105 27.5638L14.1411 26.7021C13.9316 26.0318 13.9914 25.2339 14.3506 24.6914C15.1289 23.4147 15.2187 21.6913 14.5601 20.3189L14.2309 19.5848C13.9615 19.0742 13.3629 18.8508 12.854 19.1061Z" fill="white"/>
<path d="M22.854 19.1061C22.3452 19.3614 22.1656 19.9997 22.405 20.5423L22.7343 21.2764C23.0635 21.9785 23.0336 22.9041 22.6445 23.5424C21.986 24.6275 21.8064 26.1276 22.2254 27.4042L22.4948 28.2659C22.6445 28.7128 23.0336 29 23.4527 29C23.5724 29 23.6622 28.9681 23.7819 28.9362C24.2908 28.7447 24.5901 28.1383 24.4105 27.5638L24.1411 26.7021C23.9316 26.0318 23.9914 25.2339 24.3506 24.6914C25.1289 23.4147 25.2187 21.6913 24.5601 20.3189L24.2309 19.5848C23.9615 19.0742 23.3629 18.8508 22.854 19.1061Z" fill="white"/>
<path d="M1.05095 20.0655H4.21586V36.945C4.21586 37.5358 4.68004 38 5.27083 38H32.7C33.2908 38 33.755 37.5358 33.755 36.945V20.0655H36.9199C37.8483 20.0655 38.3125 18.9262 37.6795 18.251L19.745 0.316491C19.323 -0.105497 18.6478 -0.105497 18.2681 0.316491L0.29137 18.251C-0.341612 18.9262 0.122575 20.0655 1.05095 20.0655ZM18.9854 2.55303L34.388 17.9556H32.7C32.1093 17.9556 31.6451 18.4198 31.6451 19.0105V35.8901H6.3258V19.0105C6.3258 18.4198 5.86161 17.9556 5.27083 17.9556H3.58287L18.9854 2.55303Z" fill="white"/>
</svg>
